<svg id="svg" version="1.1" xmlns="http://www.w3.org/2000/svg" xmlns:xlink="http://www.w3.org/1999/xlink" width="400" height="407.29312762973353" viewBox="0, 0, 400,407.29312762973353"><g id="svgg"><path id="path0" d="M54.600 53.395 C 52.442 54.153,49.829 57.066,49.252 59.358 C 48.455 62.523,48.622 352.454,49.422 355.149 C 50.160 357.634,52.267 359.932,54.603 360.799 C 56.509 361.507,343.110 361.942,348.958 361.246 C 352.737 360.796,354.864 359.520,356.400 356.782 L 357.400 355.000 357.400 207.000 L 357.400 59.000 356.289 57.111 C 355.569 55.885,354.515 54.831,353.289 54.111 L 351.400 53.000 203.800 52.916 C 77.906 52.845,55.965 52.916,54.600 53.395 M334.336 70.342 C 338.036 70.573,338.552 70.700,339.236 71.544 C 340.438 73.030,340.437 341.371,339.235 342.856 L 338.471 343.800 204.135 343.910 C 64.153 344.024,68.459 344.059,67.190 342.790 C 65.982 341.582,65.938 73.059,67.145 71.569 C 67.654 70.940,68.509 70.563,69.845 70.378 C 72.340 70.032,328.800 69.998,334.336 70.342 M100.400 107.836 C 98.722 108.561,77.824 129.252,75.775 132.216 C 72.327 137.207,74.528 143.768,80.204 145.418 C 83.842 146.476,86.357 145.542,90.676 141.529 C 91.818 140.468,93.101 139.600,93.527 139.600 C 95.481 139.600,95.386 136.624,95.600 204.561 C 95.748 251.692,95.921 268.468,96.265 269.234 C 98.026 273.150,103.844 275.251,107.769 273.388 C 109.604 272.517,238.368 143.642,239.500 141.543 C 243.334 134.434,235.222 126.567,227.858 130.252 C 227.166 130.599,201.651 155.809,171.158 186.276 C 111.979 245.406,114.602 242.951,113.316 240.400 C 112.917 239.608,112.811 226.325,112.806 176.687 C 112.799 107.949,112.957 112.475,110.479 109.863 C 108.044 107.298,103.678 106.420,100.400 107.836 M304.925 130.808 C 304.004 131.276,302.819 132.231,302.292 132.929 C 300.145 135.775,300.223 134.479,300.004 171.000 C 299.793 206.202,299.803 205.997,298.159 206.746 C 296.906 207.317,221.374 207.398,219.881 206.831 C 216.864 205.684,215.804 206.893,248.826 173.800 C 279.606 142.953,279.970 142.550,279.991 139.246 C 280.038 132.012,272.249 128.002,266.236 132.165 C 263.088 134.345,128.638 269.075,127.672 271.019 C 124.050 278.301,130.439 285.703,138.200 283.218 C 139.518 282.796,144.812 277.705,168.200 254.373 C 187.900 234.719,197.056 225.850,198.087 225.420 C 200.001 224.622,296.421 224.462,298.159 225.254 C 299.805 226.004,299.793 225.773,300.000 262.000 C 300.197 296.408,300.214 297.030,301.033 298.800 C 304.053 305.324,313.148 305.684,316.378 299.407 L 317.400 297.421 317.400 217.011 L 317.400 136.600 316.400 134.603 C 314.345 130.498,309.008 128.733,304.925 130.808 " stroke="none" fill="#ffffff" fill-rule="evenodd"></path></g></svg>