<svg id="svg" version="1.1" xmlns="http://www.w3.org/2000/svg" xmlns:xlink="http://www.w3.org/1999/xlink" width="400" height="399.4736842105263" viewBox="0, 0, 400,399.4736842105263"><g id="svgg"><path id="path0" d="M65.705 54.354 C 60.389 54.798,57.584 56.490,55.785 60.340 L 54.945 62.138 54.945 199.001 L 54.945 335.864 55.866 337.862 C 57.069 340.473,58.375 341.792,60.886 342.928 L 62.937 343.856 199.600 343.856 L 336.264 343.856 338.661 342.657 C 341.602 341.187,343.422 338.921,344.031 335.972 C 344.341 334.473,344.436 294.745,344.361 198.002 L 344.256 62.138 343.108 59.800 C 341.906 57.353,339.892 55.687,336.877 54.648 C 335.264 54.092,72.262 53.807,65.705 54.354 M324.276 71.762 C 325.295 72.293,326.236 73.234,326.873 74.359 L 327.872 76.124 327.977 197.802 C 328.092 330.398,328.226 322.818,325.726 325.316 C 323.228 327.812,330.728 327.672,199.600 327.672 C 68.473 327.672,75.973 327.812,73.475 325.316 C 70.970 322.814,71.105 330.435,71.222 197.802 L 71.329 76.124 72.205 74.487 C 73.167 72.689,74.311 71.783,76.371 71.189 C 77.238 70.938,121.590 70.822,200.200 70.864 L 322.677 70.929 324.276 71.762 M103.830 106.430 C 100.319 107.738,82.515 125.032,80.173 129.408 C 76.357 136.539,82.677 142.692,90.909 139.860 C 94.765 138.533,96.190 138.867,97.743 141.459 C 97.948 141.801,98.187 165.938,98.302 197.802 L 98.501 253.546 99.402 255.770 C 101.434 260.792,105.826 262.561,110.689 260.317 C 113.473 259.032,230.425 142.343,232.419 138.861 C 235.579 133.342,232.371 126.959,226.438 126.959 C 222.011 126.959,224.172 124.968,171.029 178.000 C 117.924 230.994,119.615 229.450,116.951 227.354 C 114.866 225.715,114.934 227.502,114.702 168.021 L 114.486 112.465 113.465 110.482 C 111.591 106.841,107.425 105.089,103.830 106.430 M295.401 128.293 C 293.598 129.210,292.522 130.459,291.398 132.944 C 290.772 134.326,290.691 137.169,290.509 164.036 L 290.310 193.606 289.311 195.405 C 288.573 196.732,287.789 197.464,286.314 198.202 L 284.316 199.201 253.147 199.201 C 219.342 199.201,218.945 199.176,217.778 196.994 C 216.372 194.367,216.636 194.059,243.347 167.233 C 261.311 149.192,268.355 141.861,269.263 140.262 C 273.665 132.509,267.183 125.120,259.319 128.925 C 256.122 130.472,131.320 255.204,129.630 258.541 C 125.739 266.223,132.368 272.877,140.161 269.113 C 142.113 268.170,146.175 264.306,167.233 243.359 C 180.859 229.804,192.652 218.328,193.439 217.857 C 196.994 215.730,196.229 215.761,242.395 215.877 L 285.115 215.984 286.813 216.957 C 287.980 217.625,288.793 218.500,289.411 219.754 L 290.310 221.578 290.527 251.748 C 290.765 284.823,290.684 283.777,293.233 286.603 C 296.537 290.263,300.868 290.261,304.174 286.597 C 306.859 283.622,306.693 288.783,306.693 207.992 L 306.693 134.466 305.555 132.147 C 303.513 127.989,299.211 126.356,295.401 128.293 " stroke="none" fill="#939393" fill-rule="evenodd"></path><path id="path1" d="M0.000 199.800 L 0.000 399.600 200.000 399.600 L 400.000 399.600 400.000 199.800 L 400.000 0.000 200.000 0.000 L 0.000 0.000 0.000 199.800 M336.877 54.648 C 339.892 55.687,341.906 57.353,343.108 59.800 L 344.256 62.138 344.361 198.002 C 344.436 294.745,344.341 334.473,344.031 335.972 C 343.422 338.921,341.602 341.187,338.661 342.657 L 336.264 343.856 199.600 343.856 L 62.937 343.856 60.886 342.928 C 58.375 341.792,57.069 340.473,55.866 337.862 L 54.945 335.864 54.945 199.001 L 54.945 62.138 55.785 60.340 C 57.584 56.490,60.389 54.798,65.705 54.354 C 72.262 53.807,335.264 54.092,336.877 54.648 M76.371 71.189 C 74.311 71.783,73.167 72.689,72.205 74.487 L 71.329 76.124 71.222 197.802 C 71.105 330.435,70.970 322.814,73.475 325.316 C 75.973 327.812,68.473 327.672,199.600 327.672 C 330.728 327.672,323.228 327.812,325.726 325.316 C 328.226 322.818,328.092 330.398,327.977 197.802 L 327.872 76.124 326.873 74.359 C 326.236 73.234,325.295 72.293,324.276 71.762 L 322.677 70.929 200.200 70.864 C 121.590 70.822,77.238 70.938,76.371 71.189 M110.865 107.389 C 111.772 108.027,112.878 109.343,113.465 110.482 L 114.486 112.465 114.702 168.021 C 114.934 227.502,114.866 225.715,116.951 227.354 C 119.615 229.450,117.924 230.994,171.029 178.000 C 224.172 124.968,222.011 126.959,226.438 126.959 C 232.371 126.959,235.579 133.342,232.419 138.861 C 230.425 142.343,113.473 259.032,110.689 260.317 C 105.826 262.561,101.434 260.792,99.402 255.770 L 98.501 253.546 98.302 197.802 C 98.187 165.938,97.948 141.801,97.743 141.459 C 96.190 138.867,94.765 138.533,90.909 139.860 C 82.677 142.692,76.357 136.539,80.173 129.408 C 81.425 127.068,96.986 110.930,100.433 108.396 C 104.256 105.585,107.810 105.242,110.865 107.389 M302.834 128.782 C 303.908 129.493,304.782 130.574,305.555 132.147 L 306.693 134.466 306.693 207.992 C 306.693 288.783,306.859 283.622,304.174 286.597 C 300.868 290.261,296.537 290.263,293.233 286.603 C 290.684 283.777,290.765 284.823,290.527 251.748 L 290.310 221.578 289.411 219.754 C 288.793 218.500,287.980 217.625,286.813 216.957 L 285.115 215.984 242.395 215.877 C 196.229 215.761,196.994 215.730,193.439 217.857 C 192.652 218.328,180.859 229.804,167.233 243.359 C 146.175 264.306,142.113 268.170,140.161 269.113 C 132.368 272.877,125.739 266.223,129.630 258.541 C 131.320 255.204,256.122 130.472,259.319 128.925 C 267.183 125.120,273.665 132.509,269.263 140.262 C 268.355 141.861,261.311 149.192,243.347 167.233 C 216.636 194.059,216.372 194.367,217.778 196.994 C 218.945 199.176,219.342 199.201,253.147 199.201 L 284.316 199.201 286.314 198.202 C 287.789 197.464,288.573 196.732,289.311 195.405 L 290.310 193.606 290.509 164.036 C 290.726 131.964,290.619 133.483,292.892 130.290 C 294.949 127.402,299.667 126.686,302.834 128.782 " stroke="none" fill="#040404" fill-rule="evenodd"></path></g></svg>