<svg id="svg" version="1.1" xmlns="http://www.w3.org/2000/svg" xmlns:xlink="http://www.w3.org/1999/xlink" width="400" height="399.4736842105263" viewBox="0, 0, 400,399.4736842105263"><g id="svgg"><path id="path0" d="M0.000 199.737 L 0.000 399.474 200.000 399.474 L 400.000 399.474 400.000 199.737 L 400.000 0.000 200.000 0.000 L 0.000 0.000 0.000 199.737 M339.821 55.075 C 340.823 55.551,342.221 56.790,342.927 57.829 L 344.211 59.718 344.209 198.938 C 344.206 355.675,344.620 340.059,340.400 342.636 C 337.689 344.291,60.567 344.028,58.297 342.368 C 54.383 339.507,54.737 353.737,54.737 199.079 C 54.737 102.640,54.906 60.675,55.298 59.640 C 56.045 57.667,57.801 55.814,59.737 54.953 C 62.406 53.767,337.316 53.887,339.821 55.075 M71.053 199.212 L 71.053 327.897 199.605 327.764 L 328.158 327.632 328.291 199.079 L 328.423 70.526 199.738 70.526 L 71.053 70.526 71.053 199.212 M111.353 106.555 C 114.994 108.940,114.733 103.843,114.735 172.628 L 114.737 234.467 168.816 180.439 C 219.918 129.384,223.016 126.391,225.096 126.060 C 231.065 125.109,236.171 131.175,234.073 136.724 C 232.975 139.628,110.779 261.484,108.545 261.903 C 104.580 262.647,101.448 261.233,99.509 257.823 C 98.426 255.919,98.421 255.612,98.421 194.415 L 98.421 132.921 94.605 136.696 C 89.472 141.774,86.592 142.713,82.623 140.604 C 78.964 138.660,77.222 133.511,79.098 130.181 C 80.506 127.680,102.629 105.810,104.073 105.492 C 104.872 105.315,105.763 105.112,106.053 105.040 C 106.994 104.806,109.992 105.663,111.353 106.555 M303.125 127.810 C 306.919 130.586,306.563 122.678,306.716 207.493 C 306.852 282.717,306.844 283.347,305.787 285.481 C 303.009 291.088,295.222 291.602,291.982 286.391 L 290.789 284.474 290.526 250.000 L 290.263 215.526 242.646 215.392 L 195.029 215.258 167.909 242.313 C 152.993 257.194,140.031 269.748,139.105 270.211 C 132.366 273.579,124.960 265.973,128.490 259.310 C 130.125 256.224,258.515 128.476,260.898 127.564 C 267.320 125.106,273.501 131.631,271.025 138.255 C 270.721 139.070,257.221 153.003,241.025 169.217 C 224.830 185.431,211.579 198.873,211.579 199.089 C 211.579 199.304,229.283 199.420,250.921 199.345 L 290.263 199.211 290.526 165.526 L 290.789 131.842 292.053 130.070 C 294.575 126.534,299.897 125.448,303.125 127.810 " stroke="none" fill="#000000" fill-rule="evenodd"></path></g></svg>